HIERARCHY
ROOT Hip
{
  OFFSET 0.0 0.0 0.0
  CHANNELS 6 Xposition Yposition Zposition Xrotation Yrotation Zrotation
  JOINT LowerSpine
  {
    OFFSET 0.0 0.061367 -0.03653
    CHANNELS 3 Xrotation Yrotation Zrotation
    JOINT MiddleSpine
    {
      OFFSET 0.0 0.056002 0.002633
      CHANNELS 3 Xrotation Yrotation Zrotation
      JOINT Chest
      {
        OFFSET 0.0 0.069296 -0.013882
        CHANNELS 3 Xrotation Yrotation Zrotation
        JOINT Neck
        {
          OFFSET 0.0 0.156156 -0.002923
          CHANNELS 3 Xrotation Yrotation Zrotation
          JOINT Head
          {
            OFFSET 0.0 0.088183 0.023986
            CHANNELS 3 Xrotation Yrotation Zrotation
            End Site
            {
              OFFSET 1e-06 0.123215 0.003678
            }
          }
        }
        JOINT LClavicle
        {
          OFFSET 0.014189 0.150698 0.046467
          CHANNELS 3 Xrotation Yrotation Zrotation
          JOINT LShoulder
          {
            OFFSET 0.082893 0.021616 -0.034976
            CHANNELS 3 Xrotation Yrotation Zrotation
            JOINT LForearm
            {
              OFFSET 0.195645 -0.000695 -0.001695
              CHANNELS 3 Xrotation Yrotation Zrotation
              JOINT LHand
              {
                OFFSET 0.163209 0.000474 -0.000977
                CHANNELS 3 Xrotation Yrotation Zrotation
                End Site
                {
                  OFFSET 0.0 0.006864 0.0
                }
              }
            }
          }
        }
        JOINT RClavicle
        {
          OFFSET -0.014189 0.150698 0.046467
          CHANNELS 3 Xrotation Yrotation Zrotation
          JOINT RShoulder
          {
            OFFSET -0.082908 0.021619 -0.034982
            CHANNELS 3 Xrotation Yrotation Zrotation
            JOINT RForearm
            {
              OFFSET -0.195645 -0.000695 -0.001695
              CHANNELS 3 Xrotation Yrotation Zrotation
              JOINT RHand
              {
                OFFSET -0.163209 0.000474 -0.000977
                CHANNELS 3 Xrotation Yrotation Zrotation
                End Site
                {
                  OFFSET 0.0 0.006864 0.0
                }
              }
            }
          }
        }
      }
    }
  }
  JOINT RThigh
  {
    OFFSET -0.072558 0.02774 -0.005953
    CHANNELS 3 Xrotation Yrotation Zrotation
    JOINT RShin
    {
      OFFSET -0.005253 -0.285537 0.0
      CHANNELS 3 Xrotation Yrotation Zrotation
      JOINT RFoot
      {
        OFFSET 0.0 -0.28038 0.0
        CHANNELS 3 Xrotation Yrotation Zrotation
        JOINT RToe
        {
          OFFSET 0.0 -0.030816 0.064441
          CHANNELS 3 Xrotation Yrotation Zrotation
          End Site
          {
            OFFSET 0.0 0.0 0.043231
          }
        }
      }
    }
  }
  JOINT LThigh
  {
    OFFSET 0.072557 0.027741 -0.005953
    CHANNELS 3 Xrotation Yrotation Zrotation
    JOINT LShin
    {
      OFFSET 0.005253 -0.285539 0.0
      CHANNELS 3 Xrotation Yrotation Zrotation
      JOINT LFoot
      {
        OFFSET 0.0 -0.28038 0.0
        CHANNELS 3 Xrotation Yrotation Zrotation
        JOINT LToe
        {
          OFFSET 0.0 -0.030816 0.064441
          CHANNELS 3 Xrotation Yrotation Zrotation
          End Site
          {
            OFFSET 0.0 0.0 0.043231
          }
        }
      }
    }
  }
}
MOTION
Frames: 9
Frame Time: 0.03333333333333333
0.000416 0.575989 0.03123 8.830489 1.766073 -2.663141 -2.410838 -0.572971 -0.120492 -1.19653 0.938367 -0.052991 -5.379412 2.351311 2.237967 -2.338402 -0.129692 -0.04554 -0.000123 0.096635 0.0285 -0.318299 0.489996 -17.89179 18.222467 -11.333451 -55.149525 0.71863 -16.341272 -2.677286 -0.019006 -0.009702 0.058094 0.492584 -1.304141 9.556898 -22.971132 1.248315 36.401638 -22.942286 24.483376 -2.751338 0.060223 -0.006231 -0.016862 -6.071091 -1.967326 -1.832197 1.989505 -0.913301 0.094328 -2.304379 1.046606 0.528933 0.040773 0.034657 -0.031426 -2.418364 -0.85062 0.868932 1.10821 0.687702 1.880474 -4.712574 1.986517 0.822938 -0.052574 0.078062 0.049483 
-0.004619 0.576583 0.030537 8.883268 1.541039 -2.525386 -2.34271 -0.558566 -0.159732 -1.243635 0.89523 -0.035455 -5.456935 2.248871 2.420254 -2.270466 -0.119578 -0.038118 0.000801 0.101849 0.028584 -0.298711 0.519037 -17.615824 18.397924 -11.486958 -55.109364 0.807964 -16.963146 -2.602375 -0.018732 -0.011851 0.055744 0.48243 -1.276828 9.569477 -23.096796 1.236326 36.550926 -22.270956 22.831997 -2.738955 0.064478 -0.006944 -0.016637 -6.202713 -1.958446 -1.60653 1.911187 -0.859699 0.162687 -2.342899 1.138659 0.566356 0.044004 0.0345 -0.032081 -2.559927 -0.74522 1.014666 1.221136 0.780158 1.877491 -4.642657 1.954891 0.782329 -0.054101 0.078795 0.05152 
-0.009242 0.577274 0.029848 8.929045 1.357959 -2.414456 -2.270186 -0.545491 -0.196904 -1.288545 0.847989 -0.020534 -5.539614 2.147139 2.580636 -2.208895 -0.110383 -0.033802 0.001919 0.108679 0.027637 -0.276963 0.541144 -17.328516 18.587046 -11.629336 -54.994053 0.920845 -17.615005 -2.537154 -0.018142 -0.014119 0.052777 0.466714 -1.24618 9.563917 -23.084169 1.173642 36.700851 -21.623831 21.396641 -2.72492 0.069961 -0.008317 -0.016159 -6.322675 -1.999058 -1.414096 1.86902 -0.86304 0.254698 -2.374047 1.232972 0.602949 0.046723 0.034985 -0.032585 -2.682257 -0.661904 1.148832 1.340168 0.858997 1.878515 -4.568666 1.917486 0.738742 -0.054964 0.078839 0.052555 
-0.013266 0.577985 0.02924 8.863775 1.150993 -2.354101 -2.189194 -0.524928 -0.223717 -1.330739 0.798893 -0.001833 -5.544345 2.037388 2.751597 -2.151078 -0.096584 -0.032882 0.00388 0.109455 0.025551 -0.261965 0.546906 -17.05312 18.711096 -11.76344 -54.941036 1.005168 -18.182306 -2.455734 -0.015572 -0.013176 0.046521 0.439573 -1.215401 9.558998 -23.052099 1.105378 36.766964 -20.985844 20.231522 -2.729688 0.069478 -0.011361 -0.016365 -6.336442 -2.067672 -1.230359 1.847615 -0.909258 0.352995 -2.36475 1.315792 0.629082 0.047539 0.037758 -0.030732 -2.668236 -0.54734 1.321094 1.473385 0.937324 1.859674 -4.508329 1.893055 0.71841 -0.054534 0.073835 0.050883 
-0.01685 0.578885 0.028594 8.797108 0.944125 -2.327375 -2.114688 -0.508378 -0.243875 -1.36717 0.745806 0.021382 -5.571414 1.907908 2.888105 -2.107248 -0.084317 -0.02939 0.006658 0.108329 0.023131 -0.242224 0.546122 -16.796385 18.829748 -11.920951 -54.871063 1.081115 -18.776527 -2.376742 -0.012097 -0.010213 0.039317 0.412859 -1.196141 9.556159 -23.010256 1.010446 36.824989 -20.398218 19.087584 -2.734013 0.067906 -0.015769 -0.016864 -6.362385 -2.151373 -1.027227 1.844835 -0.96427 0.421509 -2.342913 1.395207 0.649571 0.04944 0.043904 -0.027694 -2.617663 -0.395795 1.483734 1.610699 1.044726 1.82583 -4.439133 1.869277 0.707743 -0.053663 0.067095 0.048567 
-0.020012 0.579911 0.027879 8.725867 0.742645 -2.329127 -2.04741 -0.499858 -0.258071 -1.395428 0.686276 0.056952 -5.599484 1.77402 3.003913 -2.076387 -0.073817 -0.024649 0.010171 0.103466 0.020028 -0.215937 0.532639 -16.563145 18.973217 -12.146436 -54.814159 1.200703 -19.4226 -2.293316 -0.007214 -0.00463 0.030624 0.38599 -1.191067 9.544242 -22.913246 0.928134 36.850609 -19.829269 18.065796 -2.758093 0.065176 -0.020868 -0.017576 -6.378867 -2.244415 -0.798703 1.801191 -1.024306 0.458198 -2.307959 1.477437 0.665712 0.051508 0.053202 -0.023737 -2.546069 -0.228799 1.649857 1.783294 1.161465 1.782058 -4.367372 1.851798 0.708235 -0.052228 0.058688 0.045626 
-0.022734 0.580942 0.027057 8.642354 0.545255 -2.33888 -1.990962 -0.490975 -0.266747 -1.416496 0.636168 0.093216 -5.614684 1.662125 3.120108 -2.053035 -0.065417 -0.020953 0.013443 0.098505 0.017273 -0.189685 0.519254 -16.37031 19.106462 -12.377295 -54.800892 1.334502 -20.014267 -2.220159 -0.00248 0.001033 0.022233 0.367128 -1.191675 9.517221 -22.921133 0.858658 36.842896 -19.411865 17.261744 -2.79047 0.062811 -0.025888 -0.018279 -6.349507 -2.310775 -0.583142 1.711845 -1.06484 0.47902 -2.274979 1.554813 0.682827 0.054134 0.062244 -0.020163 -2.438495 -0.074729 1.802896 1.928363 1.270242 1.74607 -4.306605 1.845618 0.715131 -0.05025 0.050485 0.042695 
-0.024935 0.581963 0.026092 8.540386 0.352365 -2.36218 -1.947673 -0.480998 -0.266714 -1.430607 0.59466 0.130601 -5.621216 1.573771 3.231754 -2.038312 -0.05849 -0.018078 0.016425 0.093154 0.015109 -0.167814 0.503121 -16.231152 19.217316 -12.599057 -54.844017 1.474403 -20.523645 -2.156481 0.001896 0.006547 0.014494 0.354587 -1.193367 9.478929 -23.077833 0.800831 36.802006 -19.152653 16.647694 -2.828634 0.060582 -0.030593 -0.019026 -6.259712 -2.345561 -0.378209 1.561484 -1.077821 0.480008 -2.247828 1.627706 0.700118 0.057038 0.070814 -0.016913 -2.302449 0.056605 1.938534 2.033732 1.365009 1.720994 -4.256888 1.852849 0.728505 -0.047793 0.042578 0.03978 
-0.026623 0.582985 0.025009 8.424818 0.175067 -2.389882 -1.917978 -0.470892 -0.257694 -1.432331 0.563196 0.169056 -5.619445 1.512995 3.335229 -2.031522 -0.050228 -0.015861 0.019196 0.086444 0.013543 -0.153056 0.483031 -16.146223 19.312208 -12.807058 -54.956882 1.615063 -20.924837 -2.100865 0.006067 0.012257 0.007346 0.345357 -1.194655 9.431153 -23.39703 0.776191 36.728649 -18.993258 16.178047 -2.870287 0.057663 -0.035083 -0.019874 -6.107634 -2.349272 -0.184959 1.349768 -1.063126 0.458844 -2.227222 1.694201 0.716579 0.058886 0.078501 -0.013903 -2.151215 0.158751 2.060236 2.107699 1.435799 1.704204 -4.220843 1.876638 0.749316 -0.044444 0.034503 0.036589 
